<?xml version="1.0" encoding="UTF-8"?>
<svg width="18px" height="18px" viewBox="0 0 18 18" version="1.1" xmlns="http://www.w3.org/2000/svg" xmlns:xlink="http://www.w3.org/1999/xlink">
    <!-- Generator: Sketch 42 (36781) - http://www.bohemiancoding.com/sketch -->
    <title>订单</title>
    <desc>Created with Sketch.</desc>
    <defs></defs>
    <g id="滴滴开票原页面修改" stroke="none" stroke-width="1" fill="none" fill-rule="evenodd">
        <g id="申请常规开票-（高级搜索）" transform="translate(-230.000000, -508.000000)" fill-rule="nonzero" fill="#4BC076">
            <g id="订单" transform="translate(230.000000, 508.000000)">
                <g id="Group" transform="translate(0.068027, 0.068027)">
                    <path d="M16.7072269,4.74866815 C15.9779255,1.74773679 13.1567634,0.0692829507 10.217858,0.0692829507 C7.91376034,0.0692829507 5.37866281,-0.258549213 3.27432084,0.859577062 C1.83102729,1.62651286 0.798176552,3.0126207 0.304905533,4.54779754 C-0.0259993622,5.57782026 0.0417370323,6.67963106 0.0417370323,7.74576536 C0.0417370323,9.78158235 -0.158644106,11.8342043 0.832710964,13.696751 C2.00375372,15.8967832 4.33860608,16.9263437 6.73795892,16.9263437 C8.52197385,16.9263437 10.4818151,17.1442368 12.2303439,16.7200346 C14.9902414,16.0505565 16.8488452,13.4438069 16.9130194,10.6747183 C16.9135633,10.6647659 16.9138624,10.6546503 16.9138624,10.6443172 C16.9139439,8.73271527 17.1625101,6.6211673 16.7072269,4.74866815 Z M12.3047968,12.3013706 L4.70206029,12.3013706 C4.09754499,12.3013706 4.09754499,11.3648083 4.70206029,11.3648083 L12.3047696,11.3648083 C12.9092305,11.3648083 12.9092305,12.3013706 12.3047968,12.3013706 Z M12.3047968,8.97157374 L4.70206029,8.97157374 C4.09754499,8.97157374 4.09754499,8.03501145 4.70206029,8.03501145 L12.3047696,8.03501145 C12.9092305,8.03501145 12.9092305,8.97157374 12.3047968,8.97157374 Z M12.3047968,5.64196726 L4.70206029,5.64196726 C4.09754499,5.64196726 4.09754499,4.70540497 4.70206029,4.70540497 L12.3047696,4.70540497 C12.9092305,4.70540497 12.9092305,5.64196726 12.3047968,5.64196726 Z" id="Shape"></path>
                </g>
            </g>
        </g>
    </g>
</svg>