<?xml version="1.0" encoding="UTF-8"?>
<svg width="18px" height="18px" viewBox="0 0 18 18" version="1.1" xmlns="http://www.w3.org/2000/svg" xmlns:xlink="http://www.w3.org/1999/xlink">
    <!-- Generator: Sketch 42 (36781) - http://www.bohemiancoding.com/sketch -->
    <title>Group 7</title>
    <desc>Created with Sketch.</desc>
    <defs></defs>
    <g id="滴滴开票原页面修改" stroke="none" stroke-width="1" fill="none" fill-rule="evenodd">
        <g id="申请常规开票-（高级搜索）" transform="translate(-230.000000, -553.000000)" fill-rule="nonzero">
            <g id="Group-7" transform="translate(230.000000, 553.000000)">
                <g id="订单" fill="#F8D36C">
                    <g id="Group" transform="translate(0.060469, 0.060469)">
                        <path d="M16.6820964,4.72417819 C15.952795,1.72324682 13.1316329,0.0447929817 10.1927275,0.0447929817 C7.88862983,0.0447929817 5.35353231,-0.283039182 3.24919034,0.835087093 C1.80589679,1.60202289 0.773046047,2.98813073 0.279775027,4.52330757 C-0.0511298674,5.55333029 0.0166065271,6.65514109 0.0166065271,7.72127539 C0.0166065271,9.75709238 -0.183774611,11.8097143 0.807580459,13.672261 C1.97862322,15.8722932 4.31347557,16.9018537 6.71282841,16.9018537 C8.49684335,16.9018537 10.4566846,17.1197468 12.2052134,16.6955446 C14.9651109,16.0260665 16.8237147,13.4193169 16.8878889,10.6502284 C16.8884328,10.6402759 16.8887319,10.6301603 16.8887319,10.6198272 C16.8888134,8.7082253 17.1373796,6.59667734 16.6820964,4.72417819 Z" id="Shape"></path>
                    </g>
                </g>
                <g id="公司" transform="translate(3.553286, 3.810037)" fill="#FFFFFF">
                    <g id="Group" transform="translate(0.131083, 0.252722)">
                        <path d="M8.59006158,5.47742157 C8.38686736,5.47742157 8.18307842,5.40549608 8.01954026,5.25870293 L4.73484848,2.31191705 L1.45018803,5.25870293 C1.09732116,5.5742925 0.557410398,5.54471478 0.242853724,5.19347546 C-0.0726732337,4.84173535 -0.0431894094,4.30135512 0.308081203,3.98620373 L4.73484848,0.0152463151 L9.16170969,3.98620376 C9.51288643,4.30132383 9.54240155,4.84173537 9.22687456,5.19347548 C9.05817201,5.38164608 8.82493057,5.47742157 8.59006158,5.47742157 Z M4.73484848,3.60041013 L0.879072021,7.13217757 L0.879072021,8.37732129 C0.879072021,8.69516438 1.13688331,8.95400856 1.45569669,8.95400856 L3.51136382,8.95400856 L3.51136382,7.05987648 L5.95880268,7.05987648 L5.95880268,8.95400856 L8.0139377,8.95400856 C8.33234419,8.95400856 8.59062497,8.69516441 8.59062497,8.37732129 L8.59062497,7.13217757 L4.73484848,3.60041013 Z" id="Shape"></path>
                    </g>
                </g>
            </g>
        </g>
    </g>
</svg>