<?xml version="1.0" encoding="UTF-8"?>
<svg width="34px" height="34px" viewBox="0 0 34 34" version="1.1" xmlns="http://www.w3.org/2000/svg" xmlns:xlink="http://www.w3.org/1999/xlink">
    <!-- Generator: Sketch 43.2 (39069) - http://www.bohemiancoding.com/sketch -->
    <title>AI-approval</title>
    <desc>Created with Sketch.</desc>
    <defs></defs>
    <g id="Page-4" stroke="none" stroke-width="1" fill="none" fill-rule="evenodd">
        <g id="AI-approval">
            <g id="Group-Copy" fill="#61CBCB">
                <rect id="Rectangle" x="0" y="0" width="34" height="34" rx="2"></rect>
            </g>
            <g id="Group-2" transform="translate(5.000000, 6.000000)" fill="#FFFFFF">
                <path d="M16.359612,14.8335644 L12.1743133,14.8335644 C11.839858,14.8335644 11.5662128,14.5563186 11.5662128,14.2174626 L11.5662128,13.5296909 L15.1713458,13.5296909 C15.505801,13.5296909 15.7794462,13.2524451 15.7794462,12.9135891 L15.7794462,3.15749745 C15.7794462,2.81864148 15.505801,2.54139569 15.1713458,2.54139569 L12.174337,2.54139569 L12.174337,1.23220352 C12.174337,0.552758797 11.6287569,1.42108547e-14 10.9581362,1.42108547e-14 L8.50635121,1.42108547e-14 C7.83573044,1.42108547e-14 7.29015033,0.552758797 7.29015033,1.23220352 L7.29015033,2.54139569 L4.18632019,2.54139569 C3.85186494,2.54139569 3.57821975,2.81864148 3.57821975,3.15749745 L3.57821975,12.9135891 C3.57821975,13.2524451 3.85186494,13.5296909 4.18632019,13.5296909 L7.89825077,13.5296909 L7.89825077,14.2174626 C7.89825077,14.5563186 7.62460557,14.8335644 7.29015033,14.8335644 L3.00981212,14.8335644 C2.67535688,14.8335644 2.40171168,15.1108102 2.40171168,15.4496661 L2.40171168,19.0681088 C2.40171168,19.4069647 2.67535688,19.6842105 3.00981212,19.6842105 L12.6052377,19.686449 L16.9677125,15.4496661 C16.9677125,15.1108102 16.6940673,14.8335644 16.359612,14.8335644 Z M13.3836493,7.98400493 C13.3836493,8.66453264 12.8391381,9.21620845 12.1674484,9.21620845 C11.4957587,9.21620845 10.9512475,8.66453264 10.9512475,7.98400493 C10.9512475,7.30350129 11.4957587,6.75180141 12.1674484,6.75180141 C12.8391381,6.75180141 13.3836493,7.30347722 13.3836493,7.98400493 Z M8.50635121,1.23331058 C8.50666001,1.23292551 8.50704007,1.23251638 8.50742013,1.23220352 L10.9570197,1.23220352 C10.9574235,1.23254045 10.9578036,1.23294958 10.9581362,1.23333464 L10.9581362,2.54139569 L8.50635121,2.54139569 L8.50635121,1.23331058 Z M6.13207531,7.98400493 C6.13207531,7.30350129 6.67658649,6.75180141 7.34827618,6.75180141 C8.01996587,6.75180141 8.56447706,7.30350129 8.56447706,7.98400493 C8.56447706,8.66453264 8.01996587,9.21620845 7.34827618,9.21620845 C6.67658649,9.21620845 6.13207531,8.66453264 6.13207531,7.98400493 Z M17.6246272,5.44270551 L17.6246272,10.5253044 C17.6246272,10.8655562 17.3523598,11.1414061 17.0165268,11.1414061 C16.6806701,11.1414061 16.4084264,10.8655562 16.4084264,10.5253044 L16.4084264,5.44270551 C16.4084264,5.10245369 16.6806701,4.82660375 17.0165268,4.82660375 C17.3523598,4.82660375 17.6246272,5.10245369 17.6246272,5.44270551 Z M19.4393557,6.71452244 L19.4393557,9.18143239 C19.4393557,9.52168422 19.1670882,9.79753415 18.8312553,9.79753415 C18.4953986,9.79753415 18.2231548,9.52168422 18.2231548,9.18143239 L18.2231548,6.71452244 C18.2231548,6.37424656 18.4953986,6.09842069 18.8312553,6.09842069 C19.1670882,6.09842069 19.4393557,6.37424656 19.4393557,6.71452244 Z M2.42282892,11.1414061 C2.08699595,11.1414061 1.81472848,10.8655562 1.81472848,10.5253044 L1.81472848,5.44270551 C1.81472848,5.10245369 2.08699595,4.82660375 2.42282892,4.82660375 C2.75868564,4.82660375 3.03092935,5.10245369 3.03092935,5.44270551 L3.03092935,10.5253044 C3.03092935,10.8655562 2.75868564,11.1414061 2.42282892,11.1414061 Z M1.21620087,6.71452244 L1.21620087,9.18143239 C1.21620087,9.52168422 0.943957159,9.79753415 0.608100437,9.79753415 C0.272267469,9.79753415 0,9.52168422 0,9.18143239 L0,6.71452244 C0,6.37424656 0.272267469,6.09842069 0.608100437,6.09842069 C0.943957159,6.09842069 1.21620087,6.37424656 1.21620087,6.71452244 L1.21620087,6.71452244 Z" id="机器人-circle"></path>
                <path d="M22.5531473,15.4590032 L20.8357991,13.6662502 L21.6947768,12.7698738 C21.9794531,12.4730891 23.6964066,14.2659372 23.4117607,14.5630071 L22.5531473,15.4590032 Z M17.5641782,20.6672678 L15.8469514,18.874388 L20.5155687,14.0387288 L22.2327651,15.8316085 L17.5641782,20.6672678 Z M15.5121775,19.2238858 L17.2150733,21.0020895 L14.8571429,21.7304687 L15.5121775,19.2238858 Z" id="Fill-1"></path>
            </g>
        </g>
    </g>
</svg>