<?xml version="1.0" encoding="UTF-8"?>
<svg width="34px" height="34px" viewBox="0 0 34 34" version="1.1" xmlns="http://www.w3.org/2000/svg" xmlns:xlink="http://www.w3.org/1999/xlink">
    <!-- Generator: Sketch 43.2 (39069) - http://www.bohemiancoding.com/sketch -->
    <title>know</title>
    <desc>Created with Sketch.</desc>
    <defs></defs>
    <g id="Page-4" stroke="none" stroke-width="1" fill="none" fill-rule="evenodd">
        <g id="know">
            <rect id="Rectangle" fill="#6BB0E3" x="0" y="0" width="34" height="34" rx="2"></rect>
            <g id="知会我的" transform="translate(6.000000, 6.000000)" fill="#FFFFFF">
                <path d="M15.2083775,4.39082611 L15.2083775,6.03503225 C14.8199437,6.04814883 14.4920953,6.02972263 14.1389147,6.06140039 C14.1389147,3.66554441 14.1187268,4.43042332 14.1187268,4.43042332 C14.1187268,4.13783146 14.1439076,3.81371932 14.0935459,3.56072467 C14.0304748,3.25229393 13.9422229,2.98087308 13.8059652,2.75150176 C13.5411879,2.30598819 13.1350518,1.96329236 12.5929174,1.80794082 C12.3481982,1.73680084 12.0202201,1.75263973 11.7075883,1.75263973 L3.58620674,1.75263973 C3.30374871,1.75263973 2.97838594,1.72341429 2.7338181,1.77898537 C2.41029256,1.85044033 2.10719271,1.99926733 1.84848899,2.2136997 C1.49033706,2.50642655 1.24064658,2.95697976 1.12472813,3.50254378 C1.06911407,3.75828323 1.09180927,4.09564693 1.09180927,4.39874555 L1.09180927,14.867527 C1.09180927,15.1837197 1.06163546,15.5448417 1.11711983,15.8190074 C1.20537175,16.256444 1.36929597,16.5886331 1.59380558,16.8838123 C1.87628522,17.2527187 2.29999387,17.4925968 2.83977228,17.5954146 C3.02126907,17.6007467 3.20538121,17.6031765 3.38700769,17.6086661 L6.01884181,17.6086661 L5.99989062,18.7471758 L4.63546006,18.7471758 C3.91156951,18.7471758 2.99360254,18.8236479 2.39323874,18.6653941 C1.70723837,18.4836744 1.13218512,18.1093008 0.751359597,17.6059213 C0.433605125,17.1869109 0.194030227,16.7150517 0.0603878967,16.0983477 C-0.0127771186,15.7478674 0.00228817407,15.3128831 0.00228817407,14.8885405 L0.00228817407,4.41458443 C0.00228817407,4.04034583 -0.0154140852,3.65029085 0.0476569679,3.33407566 C0.216703817,2.50642655 0.574855753,1.82116989 1.10951153,1.38359826 C1.51052498,1.05399651 1.94186355,0.80907879 2.53710472,0.671995961 C2.85485919,0.598133672 3.2659666,0.624344323 3.64430646,0.624344323 L11.558751,0.624344323 C12.0834425,0.624344323 12.5801865,0.619304678 12.9737429,0.74572326 C13.7327786,0.990798471 14.3204115,1.47863156 14.7063596,2.11621408 C14.9257682,2.48525554 15.0696342,2.89634654 15.1679801,3.39974853 C15.2259501,3.69506269 15.2083775,4.04826528 15.2083775,4.39082611 Z M2.90784574,13.1333044 C2.8918078,13.1333044 2.8765912,13.1297046 2.86081263,13.1282647 C2.81032121,13.1265323 2.76177508,13.1223701 2.72122632,13.109546 C2.64929333,13.0859452 2.57986762,13.0341089 2.52010358,12.9664336 C2.50709167,12.9531821 2.49643573,12.9379056 2.48467745,12.9233717 C2.47888477,12.9153172 2.47209782,12.9086802 2.46643483,12.9003333 C2.39333466,12.8006428 2.35349917,12.6788589 2.35300204,12.5534528 C2.35300204,12.5492906 2.35410437,12.5453983 2.35423406,12.5412136 C2.35423406,12.5397737 2.35464474,12.5381988 2.35464474,12.5366239 C2.35607129,12.4665639 2.36990456,12.3974038 2.39545288,12.3325858 L2.39767917,12.3265338 C2.40500648,12.3072301 2.40902677,12.287949 2.41855875,12.2688028 C2.4858014,12.1348923 2.54818079,12.0902554 2.63615173,12.0512207 C2.68184474,12.0235476 2.73114737,12.0028941 2.78252499,11.98989 C2.79482362,11.9845579 2.80630091,11.9796532 2.81959382,11.9734662 L2.90646241,11.9736237 L2.90784574,11.9734662 L5.39465652,11.9734662 C5.41194811,11.9734662 5.42813735,11.9772234 5.44486696,11.9787983 L5.60907217,11.9787983 C5.56992834,11.9806657 5.53368086,11.9826905 5.49950837,11.9846929 C5.76058967,12.0383066 5.9490031,12.2763173 5.94965153,12.5533178 C5.94965153,12.8723903 5.69980975,13.1333044 5.39465652,13.1333044 L2.90784574,13.1333044 Z M3.2634904,9.71485052 C3.06679863,9.71485052 2.83217345,9.73586403 2.69094443,9.67525331 C2.59465192,9.63477867 2.50611901,9.55027463 2.4441503,9.44414961 C2.38471048,9.35291855 2.35295881,9.24521865 2.35300204,9.13499892 C2.35300204,8.82931299 2.59257693,8.58149297 2.88266487,8.58149297 L7.35952084,8.58149297 C7.64200048,8.58149297 7.87481005,8.81691636 7.88700061,9.11153308 L7.88851363,9.12779943 C7.88851363,9.13025176 7.88920529,9.1325466 7.88920529,9.13499892 C7.88920529,9.13931862 7.88810295,9.14334583 7.88795165,9.14766553 C7.88810295,9.1636619 7.8890756,9.17950078 7.88671962,9.19560965 C7.8853363,9.20454152 7.88256964,9.21102106 7.88090533,9.21966045 C7.87640952,9.24924586 7.8695145,9.27840381 7.86028512,9.30677431 C7.76042622,9.66330665 7.48112391,9.71485052 7.00139052,9.71485052 L3.2634904,9.71485052 Z M7.81783428,6.29106455 L2.88266487,6.29106455 C2.59257693,6.29106455 2.3554877,6.04340203 2.3554877,5.74030341 C2.3554877,5.6822575 2.36655432,5.62740637 2.38259226,5.57485008 L2.38799588,5.55698634 C2.39994869,5.52155134 2.41538143,5.48748874 2.43405634,5.45533851 C2.43600164,5.45203125 2.4366933,5.4484315 2.43876829,5.44512423 C2.43930866,5.4441118 2.44015162,5.44368433 2.44069198,5.44267191 C2.5268473,5.3037892 2.66872475,5.21291811 2.82664014,5.19543685 L2.83481041,5.19212958 L2.85776499,5.19212958 C2.86621625,5.19170211 2.87423522,5.18938477 2.88266487,5.18938477 L8.35067444,5.18938477 C8.64296706,5.18963226 8.87990499,5.43605737 8.88035889,5.74030341 C8.88035889,6.04340203 8.64324804,6.29106455 8.35318172,6.29106455 L8.08397337,6.29106455 C7.99876909,6.29407934 7.9096742,6.29349438 7.81783428,6.29106455 L7.81783428,6.29106455 Z" id="Fill-1"></path>
                <path d="M21.3402465,18.289181 C21.0889675,18.8205275 20.8302281,19.1922896 20.6423623,19.4006239 C20.4158381,19.6508054 20.0378834,19.6640224 19.7957226,19.4302346 C19.679597,19.3184981 19.6112479,19.163071 19.6058598,18.9985842 C19.6004718,18.8340974 19.6584969,18.6741993 19.7670115,18.554462 C19.8784273,18.430489 20.0687046,18.1568935 20.2652365,17.7429703 C20.6004259,17.0381558 20.8027227,16.2083485 20.8027227,15.2617847 C20.8027227,14.3154953 20.6004259,13.4866686 20.2652365,12.780599 C20.0687046,12.3669504 19.8784273,12.0931195 19.7670115,11.9693426 C19.658723,11.8495269 19.6008862,11.689668 19.6062743,11.5252596 C19.6116623,11.3608513 19.6798231,11.2054634 19.7957226,11.0936092 C20.0373182,10.859547 20.4152353,10.8727639 20.6411566,11.12322 C20.8290224,11.3300639 21.0877618,11.7030418 21.3402465,12.2319175 C21.7535438,13.1016502 22,14.1146912 22,15.2605296 C22,16.406368 21.7535438,17.4196836 21.3402465,18.289181 Z M16.6085219,22.9485813 L11.8225399,19.3258322 L9.4352196,19.3258322 C8.09517781,19.3258322 7.46074442,18.2183897 7.46074442,16.8509216 L7.46074442,13.6729222 C7.46074442,12.296669 8.1084407,11.1977764 9.4352196,11.1977764 L11.8225399,11.1977764 L16.6085219,7.57251719 C17.2718925,7.27656646 17.8094163,7.59232306 17.8094163,8.28235184 L17.8094163,22.238982 C17.8094163,22.9274812 17.2849293,23.2522975 16.6085219,22.9485813 L16.6085219,22.9485813 Z" id="Fill-2"></path>
            </g>
        </g>
    </g>
</svg>