<?xml version="1.0" encoding="UTF-8"?>
<svg width="34px" height="34px" viewBox="0 0 34 34" version="1.1" xmlns="http://www.w3.org/2000/svg" xmlns:xlink="http://www.w3.org/1999/xlink">
    <!-- Generator: Sketch 43.2 (39069) - http://www.bohemiancoding.com/sketch -->
    <title>Manual-approval</title>
    <desc>Created with Sketch.</desc>
    <defs></defs>
    <g id="Page-4" stroke="none" stroke-width="1" fill="none" fill-rule="evenodd">
        <g id="Manual-approval">
            <rect id="Rectangle" fill="#61CBCB" x="0" y="0" width="34" height="34" rx="2"></rect>
            <g id="人工" transform="translate(6.000000, 5.000000)" fill="#FFFFFF">
                <path d="M20.8453911,17.4842411 L19.2711552,15.8686377 L20.0585515,15.060836 C20.3195047,14.7933779 21.8933787,16.409067 21.6324533,16.6767822 L20.8453911,17.4842411 Z M16.2721694,22.1778551 L14.6980448,20.5621374 L18.9776107,16.20431 L20.5517074,17.8200277 L16.2721694,22.1778551 Z M13.7907203,23.1359966 L14.3911688,20.8770998 L15.9521566,22.4795917 L13.7907203,23.1359966 L13.7907203,23.1359966 Z" id="Fill-1"></path>
                <path d="M16.9890949,16.1550632 C16.9890949,16.1550632 15.5702731,14.6776593 12.2558111,13.4884234 C11.160509,13.2174518 10.6182017,12.1111699 11.5869794,11.0650468 C12.8833958,9.78760092 13.7474137,7.60594497 13.7474137,5.43502962 C13.747525,2.07282168 11.6827494,0.025594623 9.13519927,0.025594623 C6.58762129,0.025594623 4.52298487,2.07282168 4.52298487,5.43574375 C4.52298487,7.59926066 5.38115801,9.77426087 6.67028245,11.0529922 C7.65022076,12.1030859 7.09995349,13.2289065 5.99232178,13.4932224 C1.36733248,14.8168872 0.0221264721,17.1409418 0.0221264721,18.9608166 C0.0221264721,21.2023743 3.31251378,21.6655913 9.1353106,21.6655913 C10.3646797,21.6655913 10.8645725,21.5662597 11.8610431,21.5125567 L13.0393387,20.3150179 L16.9890949,16.1550632 Z" id="Fill-2"></path>
            </g>
        </g>
    </g>
</svg>